<svg width="848" height="728" viewBox="0 0 848 728" fill="none" xmlns="http://www.w3.org/2000/svg">
<g id="contact" clip-path="url(#clip0)">
<g id="Hand">
<path id="Vector" d="M651.568 506.704C649.791 506.701 648.082 506.023 646.786 504.808C645.49 503.592 644.704 501.929 644.588 500.156L643.549 484.282C643.427 482.428 644.047 480.602 645.272 479.205C646.497 477.808 648.227 476.955 650.081 476.834L774.445 468.689C776.406 468.559 778.374 468.817 780.235 469.448C782.097 470.079 783.816 471.07 785.294 472.365C786.772 473.661 787.981 475.235 788.85 476.998C789.72 478.761 790.234 480.677 790.362 482.639C790.49 484.6 790.231 486.567 789.599 488.429C788.967 490.29 787.974 492.008 786.677 493.485C785.38 494.962 783.805 496.169 782.042 497.038C780.278 497.906 778.361 498.418 776.4 498.545L652.037 506.689C651.88 506.699 651.724 506.704 651.568 506.704Z" fill="#6C63FF"/>
<path id="Vector_2" d="M676.091 508.751C674.279 508.748 672.539 508.044 671.235 506.786C669.93 505.529 669.163 503.816 669.093 502.006L668.207 478.297C668.173 477.377 668.32 476.46 668.64 475.598C668.96 474.735 669.447 473.944 670.073 473.27C670.698 472.596 671.451 472.051 672.287 471.668C673.123 471.284 674.027 471.069 674.946 471.035L777.214 467.213C779.07 467.143 780.879 467.814 782.241 469.078C783.603 470.342 784.407 472.095 784.476 473.952L785.362 497.661C785.397 498.58 785.25 499.498 784.93 500.36C784.609 501.223 784.123 502.014 783.497 502.688C782.871 503.362 782.118 503.907 781.282 504.29C780.446 504.674 779.542 504.889 778.623 504.923L676.356 508.745C676.267 508.749 676.179 508.751 676.091 508.751Z" fill="#2F2E41"/>
</g>
<g id="Body">
<path id="Vector_3" d="M795.932 727.305H780.024C778.167 727.303 776.386 726.565 775.072 725.251C773.759 723.938 773.02 722.157 773.018 720.3V587.716C773.02 585.859 773.759 584.078 775.072 582.765C776.386 581.452 778.167 580.713 780.024 580.711H795.932C797.789 580.713 799.57 581.452 800.883 582.765C802.197 584.078 802.935 585.859 802.937 587.716V720.3C802.935 722.157 802.197 723.938 800.883 725.251C799.57 726.565 797.789 727.303 795.932 727.305V727.305Z" fill="#2F2E41"/>
<path id="Vector_4" d="M757.932 727.305H742.024C740.167 727.303 738.386 726.565 737.072 725.251C735.759 723.938 735.02 722.157 735.018 720.3V587.716C735.02 585.859 735.759 584.078 737.072 582.765C738.386 581.452 740.167 580.713 742.024 580.711H757.932C759.789 580.713 761.57 581.452 762.883 582.765C764.197 584.078 764.935 585.859 764.937 587.716V720.3C764.935 722.157 764.197 723.938 762.883 725.251C761.57 726.565 759.789 727.303 757.932 727.305Z" fill="#2F2E41"/>
<path id="Vector_5" d="M807.614 623.289H724.979C722.932 623.286 720.945 622.6 719.334 621.338C717.722 620.077 716.578 618.313 716.084 616.327C715.839 615.237 715.798 614.111 715.964 613.007C715.964 613.007 732.105 522.364 740.09 478.831C741.254 472.486 744.606 466.749 749.563 462.62C754.519 458.491 760.767 456.23 767.218 456.231H767.218C783.028 456.231 798.191 462.512 809.37 473.691C820.55 484.871 826.83 500.033 826.83 515.843V604.072C826.83 606.596 826.333 609.095 825.367 611.426C824.402 613.758 822.986 615.876 821.202 617.66C819.417 619.445 817.299 620.86 814.968 621.826C812.636 622.792 810.137 623.289 807.614 623.289V623.289Z" fill="#2F2E41"/>
<path id="Vector_6" d="M791.679 611.312C791.074 612.522 790.133 613.531 788.968 614.219C787.804 614.906 786.465 615.243 785.114 615.187L769.22 614.517C768.301 614.479 767.398 614.259 766.564 613.872C765.729 613.484 764.979 612.936 764.357 612.259C763.734 611.582 763.251 610.788 762.935 609.924C762.619 609.06 762.477 608.142 762.516 607.223L767.761 482.704C767.844 480.741 768.312 478.814 769.139 477.032C769.967 475.251 771.137 473.65 772.584 472.32C774.03 470.991 775.724 469.959 777.569 469.285C779.414 468.61 781.374 468.305 783.336 468.388C785.299 468.471 787.226 468.939 789.008 469.766C790.79 470.594 792.391 471.764 793.72 473.211C795.05 474.657 796.081 476.351 796.756 478.196C797.431 480.041 797.735 482.001 797.653 483.963L792.408 608.482C792.368 609.466 792.119 610.431 791.679 611.312V611.312Z" fill="#6C63FF"/>
<path id="Vector_7" d="M799.814 578.296C799.21 579.506 798.268 580.515 797.104 581.203C795.939 581.89 794.6 582.226 793.249 582.171L766.102 581.027C764.246 580.947 762.498 580.134 761.241 578.766C759.984 577.399 759.321 575.589 759.397 573.733L763.705 471.485C763.743 470.566 763.963 469.663 764.35 468.829C764.738 467.994 765.286 467.244 765.963 466.622C766.64 465.999 767.434 465.516 768.298 465.2C769.162 464.884 770.08 464.742 770.999 464.78L798.146 465.924C799.065 465.963 799.967 466.182 800.802 466.569C801.636 466.957 802.386 467.505 803.009 468.182C803.631 468.86 804.114 469.653 804.43 470.517C804.746 471.381 804.889 472.299 804.85 473.218L800.543 575.466C800.503 576.45 800.254 577.415 799.814 578.296V578.296Z" fill="#2F2E41"/>
</g>
<g id="Head">
<path id="Vector_8" d="M771.771 442.346C802.129 442.346 826.738 417.736 826.738 387.379C826.738 357.021 802.129 332.411 771.771 332.411C741.413 332.411 716.804 357.021 716.804 387.379C716.804 417.736 741.413 442.346 771.771 442.346Z" fill="#6C63FF"/>
<path id="Vector_9" d="M742.018 406.146C740.25 405.565 738.626 404.612 737.257 403.352C736.35 402.452 735.651 401.364 735.208 400.165C734.765 398.967 734.59 397.686 734.695 396.412C734.752 395.505 735.019 394.623 735.474 393.835C735.928 393.048 736.559 392.377 737.316 391.873C739.282 390.612 741.911 390.609 744.588 391.788L744.487 370.33L746.642 370.32L746.761 395.546L745.1 394.502C743.174 393.292 740.424 392.441 738.481 393.688C738 394.017 737.602 394.453 737.318 394.961C737.034 395.469 736.87 396.036 736.841 396.618C736.768 397.567 736.901 398.52 737.229 399.413C737.558 400.306 738.075 401.118 738.746 401.793C741.126 404.066 744.599 404.777 748.559 405.413L748.217 407.541C746.113 407.262 744.038 406.795 742.018 406.146V406.146Z" fill="#2F2E41"/>
<path id="Vector_10" d="M722.267 369.249L721.985 371.385L733.495 372.905L733.777 370.769L722.267 369.249Z" fill="#2F2E41"/>
<path id="Vector_11" d="M758.596 374.042L758.314 376.179L769.823 377.699L770.105 375.562L758.596 374.042Z" fill="#2F2E41"/>
<path id="Vector_12" d="M768.716 351.675C756.86 356.35 738.944 361.32 731.128 347.439C729.602 344.602 728.698 341.472 728.477 338.259C728.255 335.045 728.72 331.821 729.841 328.801C732.202 322.252 737.224 316.857 742.947 313.044C753.668 305.902 767.232 303.958 779.717 306.718C785.995 308.085 791.952 310.645 797.265 314.259C803.304 318.4 807.556 323.988 811.831 329.837C816.2 335.817 821.148 341.848 828.329 344.468C834.2 346.61 841.562 345.516 845.716 340.532C846.686 339.369 847.43 338.034 847.91 336.597C848.533 334.765 845.637 333.979 845.017 335.799C842.834 342.214 834.8 343.651 829.127 341.575C821.637 338.834 816.907 331.713 812.416 325.565C808.122 319.688 803.375 314.514 797.173 310.615C791.598 307.136 785.425 304.726 778.968 303.508C765.969 301.035 751.97 303.226 740.954 310.778C734.884 314.753 730.128 320.438 727.286 327.114C724.763 333.431 724.827 340.488 727.464 346.758C728.789 349.883 730.857 352.637 733.488 354.781C736.119 356.925 739.234 358.394 742.562 359.061C749.825 360.533 757.372 358.84 764.266 356.506C766.033 355.908 767.779 355.252 769.514 354.568C771.289 353.867 770.516 350.965 768.716 351.675V351.675Z" fill="#2F2E41"/>
</g>
<g id="MessageSection">
<path id="Vector_13" d="M48.125 0H424.443C437.202 0.0143667 449.435 5.0893 458.457 14.1114C467.479 23.1335 472.554 35.366 472.568 48.1251V254.001C472.554 266.76 467.479 278.993 458.457 288.015C449.435 297.037 437.202 302.112 424.443 302.126H48.125C35.3659 302.112 23.1334 297.037 14.1113 288.015C5.08923 278.993 0.0143376 266.76 0 254.001V48.1251C0.0143349 35.366 5.08923 23.1335 14.1113 14.1114C23.1334 5.0893 35.3658 0.0143667 48.125 0V0Z" fill="#F2F2F2"/>
<path id="Vector_14" d="M48.1245 13.8542H424.443C433.529 13.8644 442.24 17.4783 448.665 23.9032C455.09 30.328 458.704 39.039 458.714 48.1251V254.001C458.704 263.087 455.09 271.798 448.665 278.223C442.24 284.648 433.529 288.262 424.443 288.272H48.1245C39.0385 288.262 30.3276 284.648 23.9028 278.223C17.4781 271.798 13.8642 263.087 13.854 254.001V48.1251C13.8642 39.0391 17.4781 30.3281 23.9028 23.9033C30.3276 17.4785 39.0385 13.8645 48.1245 13.8542Z" fill="white"/>
<path id="Vector_15" d="M51.7966 375.836C50.661 375.833 49.5373 375.606 48.4897 375.168C46.9261 374.539 45.5887 373.453 44.6525 372.052C43.7163 370.651 43.2249 369 43.2427 367.315V296.145L138.125 292.953L57.7529 373.325C56.9757 374.117 56.049 374.747 55.0265 375.178C54.0041 375.609 52.9062 375.833 51.7966 375.836V375.836Z" fill="#F2F2F2"/>
<path id="Vector_16" d="M377.312 65.063H94.3395C83.01 65.063 73.8257 74.2473 73.8257 85.5767V85.5768C73.8257 96.9062 83.01 106.091 94.3395 106.091H377.312C388.641 106.091 397.826 96.9062 397.826 85.5767C397.826 74.2473 388.641 65.063 377.312 65.063Z" fill="#F2F2F2"/>
<path id="Vector_17" d="M377.77 130.549H94.7979C83.4685 130.549 74.2842 139.734 74.2842 151.063V151.063C74.2842 162.392 83.4685 171.577 94.7979 171.577H377.77C389.1 171.577 398.284 162.392 398.284 151.063C398.284 139.734 389.1 130.549 377.77 130.549Z" fill="#F2F2F2"/>
<path id="Vector_18" d="M378.229 196.035H95.2564C83.927 196.035 74.7426 205.22 74.7426 216.549V216.549C74.7426 227.879 83.927 237.063 95.2564 237.063H378.229C389.558 237.063 398.743 227.879 398.743 216.549C398.743 205.22 389.558 196.035 378.229 196.035Z" fill="#F2F2F2"/>
<path id="Vector_19" d="M642.36 105H266.042C253.283 105.014 241.05 110.089 232.028 119.111C223.006 128.133 217.931 140.366 217.917 153.125V359.001C217.931 371.76 223.006 383.993 232.028 393.015C241.05 402.037 253.283 407.112 266.042 407.126H642.36C655.119 407.112 667.352 402.037 676.374 393.015C685.396 383.993 690.471 371.76 690.485 359.001V153.125C690.471 140.366 685.396 128.133 676.374 119.111C667.352 110.089 655.119 105.014 642.36 105V105Z" fill="#E6E6E6"/>
<path id="Vector_20" d="M642.361 118.854H266.042C256.956 118.864 248.245 122.478 241.82 128.903C235.395 135.328 231.781 144.039 231.771 153.125V359.001C231.781 368.087 235.395 376.798 241.82 383.223C248.245 389.648 256.956 393.262 266.042 393.272H642.361C651.447 393.262 660.158 389.648 666.582 383.223C673.007 376.798 676.621 368.087 676.631 359.001V153.125C676.621 144.039 673.007 135.328 666.582 128.903C660.158 122.478 651.447 118.864 642.361 118.854Z" fill="white"/>
<path id="Vector_21" d="M613.732 478.325L533.36 397.953L628.243 401.145V472.315C628.26 474 627.769 475.651 626.833 477.052C625.897 478.453 624.559 479.539 622.996 480.168C621.948 480.606 620.824 480.833 619.689 480.836C618.579 480.833 617.481 480.609 616.459 480.178C615.436 479.747 614.51 479.117 613.732 478.325V478.325Z" fill="#E6E6E6"/>
</g>
<path id="circle1" d="M371.201 282.063C385.561 282.063 397.201 270.422 397.201 256.063C397.201 241.704 385.561 230.063 371.201 230.063C356.842 230.063 345.201 241.704 345.201 256.063C345.201 270.422 356.842 282.063 371.201 282.063Z" fill="#6C63FF"/>
<path id="circle2" d="M454.201 282.063C468.561 282.063 480.201 270.422 480.201 256.063C480.201 241.704 468.561 230.063 454.201 230.063C439.842 230.063 428.201 241.704 428.201 256.063C428.201 270.422 439.842 282.063 454.201 282.063Z" fill="#6C63FF"/>
<g id="circle3">
<path id="Vector_22" d="M537.201 282.063C551.561 282.063 563.201 270.422 563.201 256.063C563.201 241.704 551.561 230.063 537.201 230.063C522.842 230.063 511.201 241.704 511.201 256.063C511.201 270.422 522.842 282.063 537.201 282.063Z" fill="#6C63FF"/>
</g>
</g>
<defs>
<clipPath id="clip0">
<rect width="847.997" height="727.305" fill="white"/>
</clipPath>
</defs>
</svg>
