<svg width="926" height="646" viewBox="0 0 926 646" fill="none" xmlns="http://www.w3.org/2000/svg">
<g id="skills 1" clip-path="url(#clip0)">
<g id="Leaf1">
<path id="Vector" d="M37.2549 603.797C44.1689 629.356 67.8509 645.184 67.8509 645.184C67.8509 645.184 80.323 619.575 73.4091 594.017C66.4951 568.459 42.8131 552.63 42.8131 552.63C42.8131 552.63 30.341 578.239 37.2549 603.797Z" fill="#3F3D56"/>
</g>
<g id="Leaf2">
<path id="Vector_2" d="M47.4146 598.305C66.3867 616.773 68.7039 645.164 68.7039 645.164C68.7039 645.164 40.2614 643.611 21.2894 625.142C2.3173 606.674 0 578.283 0 578.283C0 578.283 28.4425 579.836 47.4146 598.305Z" fill="#6C63FF"/>
</g>
<g id="Leaf4">
<path id="Vector_3" d="M866.415 599.597C849.069 619.6 849.154 648.085 849.154 648.085C849.154 648.085 877.364 644.139 894.711 624.136C912.058 604.133 911.972 575.648 911.972 575.648C911.972 575.648 883.762 579.595 866.415 599.597Z" fill="#3F3D56"/>
</g>
<g id="Leaf3">
<path id="Vector_4" d="M876.644 604.961C871.91 631.011 849.648 648.781 849.648 648.781C849.648 648.781 835.06 624.315 839.794 598.265C844.527 572.215 866.79 554.445 866.79 554.445C866.79 554.445 881.378 578.911 876.644 604.961Z" fill="#6C63FF"/>
</g>
<g id="Bubbles">
<path id="Vector_5" d="M191.997 581.338C191.991 576.906 190.649 572.579 188.146 568.922C185.643 565.265 182.095 562.447 177.966 560.838C182.749 558.979 186.732 555.507 189.225 551.022C191.719 546.537 192.566 541.322 191.62 536.278C190.675 531.235 187.996 526.68 184.047 523.403C180.098 520.126 175.128 518.332 169.997 518.332C164.866 518.332 159.895 520.126 155.947 523.403C151.998 526.68 149.319 531.235 148.374 536.278C147.428 541.322 148.275 546.537 150.769 551.022C153.262 555.507 157.245 558.979 162.028 560.838C157.896 562.443 154.345 565.259 151.841 568.917C149.337 572.575 147.997 576.905 147.997 581.338C147.997 585.771 149.337 590.101 151.841 593.759C154.345 597.417 157.896 600.234 162.028 601.838C157.245 603.697 153.262 607.169 150.769 611.654C148.275 616.139 147.428 621.354 148.374 626.398C149.319 631.442 151.998 635.996 155.947 639.273C159.895 642.55 164.866 644.344 169.997 644.344C175.128 644.344 180.098 642.55 184.047 639.273C187.996 635.996 190.675 631.442 191.62 626.398C192.566 621.354 191.719 616.139 189.225 611.654C186.732 607.169 182.749 603.697 177.966 601.838C182.095 600.229 185.643 597.412 188.146 593.754C190.649 590.097 191.991 585.77 191.997 581.338V581.338ZM149.997 540.338C149.994 536.575 151.052 532.888 153.05 529.7C155.049 526.512 157.906 523.952 161.294 522.314C164.681 520.677 168.462 520.028 172.202 520.443C175.942 520.858 179.489 522.319 182.435 524.659C185.382 527 187.608 530.123 188.859 533.672C190.11 537.221 190.335 541.05 189.507 544.721C188.679 548.391 186.833 551.754 184.18 554.422C181.527 557.091 178.176 558.956 174.51 559.805C171.534 559.182 168.46 559.182 165.484 559.805C161.085 558.783 157.162 556.303 154.35 552.769C151.539 549.235 150.005 544.854 149.997 540.338V540.338ZM189.997 622.338C190 626.101 188.942 629.788 186.944 632.976C184.945 636.165 182.088 638.724 178.7 640.362C175.313 641.999 171.532 642.648 167.792 642.233C164.052 641.818 160.505 640.357 157.559 638.017C154.612 635.677 152.386 632.553 151.135 629.004C149.884 625.456 149.659 621.626 150.487 617.956C151.315 614.285 153.161 610.922 155.814 608.254C158.467 605.586 161.818 603.72 165.484 602.871C168.46 603.494 171.534 603.494 174.51 602.871C178.909 603.893 182.832 606.373 185.644 609.907C188.455 613.441 189.989 617.822 189.997 622.338V622.338ZM174.51 600.805C171.534 600.182 168.46 600.182 165.484 600.805C161.082 599.79 157.154 597.312 154.341 593.776C151.528 590.241 149.997 585.856 149.997 581.338C149.997 576.82 151.528 572.436 154.341 568.9C157.154 565.364 161.082 562.887 165.484 561.871C168.46 562.494 171.534 562.494 174.51 561.871C178.912 562.887 182.84 565.364 185.653 568.9C188.466 572.436 189.997 576.82 189.997 581.338C189.997 585.856 188.466 590.241 185.653 593.776C182.84 597.312 178.912 599.79 174.51 600.805V600.805Z" fill="#3F3D56"/>
</g>
<g id="Card">
<path id="Vector_6" d="M313.497 173V644H749.497V173H313.497ZM531.497 207C528.53 207 525.63 206.12 523.163 204.472C520.697 202.824 518.774 200.481 517.639 197.74C516.504 194.999 516.206 191.983 516.785 189.074C517.364 186.164 518.793 183.491 520.89 181.393C522.988 179.296 525.661 177.867 528.571 177.288C531.48 176.709 534.496 177.006 537.237 178.142C539.978 179.277 542.321 181.2 543.969 183.666C545.617 186.133 546.497 189.033 546.497 192C546.497 195.978 544.917 199.794 542.104 202.607C539.291 205.42 535.475 207 531.497 207V207Z" fill="#3F3D56"/>
<g id="Card_2">
<path id="Vector_7" d="M568.997 487.5H360.997C359.14 487.5 357.36 486.763 356.047 485.45C354.735 484.137 353.997 482.357 353.997 480.5C353.997 478.643 354.735 476.863 356.047 475.55C357.36 474.238 359.14 473.5 360.997 473.5H568.997C570.853 473.5 572.634 474.238 573.947 475.55C575.26 476.863 575.997 478.643 575.997 480.5C575.997 482.357 575.26 484.137 573.947 485.45C572.634 486.763 570.853 487.5 568.997 487.5V487.5Z" fill="#6C63FF"/>
<g id="Card_3">
<path id="Vector_8" d="M725.997 487.5H723.997V506H725.997V487.5Z" fill="#F2F2F2"/>
<path id="Vector_9" d="M732.997 182.5H730.997V201H732.997V182.5Z" fill="#F2F2F2"/>
<path id="Vector_10" d="M590.997 271.5H361.997C360.14 271.5 358.36 270.763 357.047 269.45C355.735 268.137 354.997 266.357 354.997 264.5C354.997 262.643 355.735 260.863 357.047 259.55C358.36 258.238 360.14 257.5 361.997 257.5H590.997C592.853 257.5 594.634 258.238 595.947 259.55C597.26 260.863 597.997 262.643 597.997 264.5C597.997 266.357 597.26 268.137 595.947 269.45C594.634 270.763 592.853 271.5 590.997 271.5V271.5Z" fill="#F2F2F2"/>
<path id="Vector_11" d="M590.997 343.5H361.997C360.14 343.5 358.36 342.763 357.047 341.45C355.735 340.137 354.997 338.357 354.997 336.5C354.997 334.643 355.735 332.863 357.047 331.55C358.36 330.238 360.14 329.5 361.997 329.5H590.997C592.853 329.5 594.634 330.238 595.947 331.55C597.26 332.863 597.997 334.643 597.997 336.5C597.997 338.357 597.26 340.137 595.947 341.45C594.634 342.763 592.853 343.5 590.997 343.5Z" fill="#F2F2F2"/>
<path id="Vector_12" d="M590.997 415.5H361.997C360.14 415.5 358.36 414.763 357.047 413.45C355.735 412.137 354.997 410.357 354.997 408.5C354.997 406.643 355.735 404.863 357.047 403.55C358.36 402.238 360.14 401.5 361.997 401.5H590.997C592.853 401.5 594.634 402.238 595.947 403.55C597.26 404.863 597.997 406.643 597.997 408.5C597.997 410.357 597.26 412.137 595.947 413.45C594.634 414.763 592.853 415.5 590.997 415.5Z" fill="#F2F2F2"/>
<path id="Vector_13" d="M590.997 487.5H361.997C360.14 487.5 358.36 486.763 357.047 485.45C355.735 484.137 354.997 482.357 354.997 480.5C354.997 478.643 355.735 476.863 357.047 475.55C358.36 474.238 360.14 473.5 361.997 473.5H590.997C592.853 473.5 594.634 474.238 595.947 475.55C597.26 476.863 597.997 478.643 597.997 480.5C597.997 482.357 597.26 484.137 595.947 485.45C594.634 486.763 592.853 487.5 590.997 487.5V487.5Z" fill="#F2F2F2"/>
<path id="Vector_14" d="M590.997 559.5H361.997C360.14 559.5 358.36 558.763 357.047 557.45C355.735 556.137 354.997 554.357 354.997 552.5C354.997 550.643 355.735 548.863 357.047 547.55C358.36 546.238 360.14 545.5 361.997 545.5H590.997C592.853 545.5 594.634 546.238 595.947 547.55C597.26 548.863 597.997 550.643 597.997 552.5C597.997 554.357 597.26 556.137 595.947 557.45C594.634 558.763 592.853 559.5 590.997 559.5Z" fill="#F2F2F2"/>
<path id="Vector_15" d="M550.997 271.5H360.997C359.14 271.5 357.36 270.763 356.047 269.45C354.735 268.137 353.997 266.357 353.997 264.5C353.997 262.643 354.735 260.863 356.047 259.55C357.36 258.238 359.14 257.5 360.997 257.5H550.997C552.853 257.5 554.634 258.238 555.947 259.55C557.26 260.863 557.997 262.643 557.997 264.5C557.997 266.357 557.26 268.137 555.947 269.45C554.634 270.763 552.853 271.5 550.997 271.5V271.5Z" fill="#6C63FF"/>
<path id="Vector_16" d="M491.997 343.5H360.997C359.14 343.5 357.36 342.763 356.047 341.45C354.735 340.137 353.997 338.357 353.997 336.5C353.997 334.643 354.735 332.863 356.047 331.55C357.36 330.238 359.14 329.5 360.997 329.5H491.997C493.853 329.5 495.634 330.238 496.947 331.55C498.26 332.863 498.997 334.643 498.997 336.5C498.997 338.357 498.26 340.137 496.947 341.45C495.634 342.763 493.853 343.5 491.997 343.5Z" fill="#6C63FF"/>
<path id="Vector_17" d="M419.997 415.5H360.997C359.14 415.5 357.36 414.763 356.047 413.45C354.735 412.137 353.997 410.357 353.997 408.5C353.997 406.643 354.735 404.863 356.047 403.55C357.36 402.238 359.14 401.5 360.997 401.5H419.997C421.854 401.5 423.634 402.238 424.947 403.55C426.26 404.863 426.997 406.643 426.997 408.5C426.997 410.357 426.26 412.137 424.947 413.45C423.634 414.763 421.854 415.5 419.997 415.5V415.5Z" fill="#6C63FF"/>
<path id="Vector_18" d="M522.997 559.5H360.997C359.14 559.5 357.36 558.763 356.047 557.45C354.735 556.137 353.997 554.357 353.997 552.5C353.997 550.643 354.735 548.863 356.047 547.55C357.36 546.238 359.14 545.5 360.997 545.5H522.997C524.853 545.5 526.634 546.238 527.947 547.55C529.26 548.863 529.997 550.643 529.997 552.5C529.997 554.357 529.26 556.137 527.947 557.45C526.634 558.763 524.853 559.5 522.997 559.5V559.5Z" fill="#6C63FF"/>
</g>
<path id="Vector_19" d="M685.997 257.5H683.997V271.5H685.997V257.5Z" fill="#6C63FF"/>
<path id="Vector_20" d="M700.997 272.5C699.415 272.5 697.868 272.031 696.552 271.152C695.237 270.273 694.211 269.023 693.606 267.561C693 266.1 692.842 264.491 693.151 262.939C693.459 261.387 694.221 259.962 695.34 258.843C696.459 257.724 697.884 256.962 699.436 256.654C700.988 256.345 702.597 256.503 704.058 257.109C705.52 257.714 706.77 258.74 707.649 260.055C708.528 261.371 708.997 262.918 708.997 264.5C708.994 266.621 708.151 268.654 706.651 270.154C705.151 271.654 703.118 272.498 700.997 272.5V272.5ZM700.997 258.5C699.81 258.5 698.65 258.852 697.664 259.511C696.677 260.17 695.908 261.108 695.454 262.204C695 263.3 694.881 264.507 695.112 265.671C695.344 266.834 695.915 267.904 696.754 268.743C697.593 269.582 698.662 270.153 699.826 270.385C700.99 270.616 702.197 270.497 703.293 270.043C704.389 269.589 705.326 268.82 705.986 267.833C706.645 266.847 706.997 265.687 706.997 264.5C706.995 262.909 706.362 261.384 705.238 260.259C704.113 259.134 702.588 258.502 700.997 258.5V258.5Z" fill="#6C63FF"/>
<path id="Vector_21" d="M685.997 329.5H683.997V343.5H685.997V329.5Z" fill="#6C63FF"/>
<path id="Vector_22" d="M700.997 344.5C699.415 344.5 697.868 344.031 696.552 343.152C695.237 342.273 694.211 341.023 693.606 339.561C693 338.1 692.842 336.491 693.151 334.939C693.459 333.387 694.221 331.962 695.34 330.843C696.459 329.724 697.884 328.962 699.436 328.654C700.988 328.345 702.597 328.503 704.058 329.109C705.52 329.714 706.77 330.74 707.649 332.055C708.528 333.371 708.997 334.918 708.997 336.5C708.994 338.621 708.151 340.654 706.651 342.154C705.151 343.654 703.118 344.498 700.997 344.5ZM700.997 330.5C699.81 330.5 698.65 330.852 697.664 331.511C696.677 332.17 695.908 333.108 695.454 334.204C695 335.3 694.881 336.507 695.112 337.671C695.344 338.834 695.915 339.904 696.754 340.743C697.593 341.582 698.662 342.153 699.826 342.385C700.99 342.616 702.197 342.497 703.293 342.043C704.389 341.589 705.326 340.82 705.986 339.833C706.645 338.847 706.997 337.687 706.997 336.5C706.995 334.909 706.362 333.384 705.238 332.259C704.113 331.134 702.588 330.502 700.997 330.5V330.5Z" fill="#6C63FF"/>
<path id="Vector_23" d="M685.997 401.5H683.997V415.5H685.997V401.5Z" fill="#6C63FF"/>
<path id="Vector_24" d="M700.997 416.5C699.415 416.5 697.868 416.031 696.552 415.152C695.237 414.273 694.211 413.023 693.606 411.561C693 410.1 692.842 408.491 693.151 406.939C693.459 405.387 694.221 403.962 695.34 402.843C696.459 401.724 697.884 400.962 699.436 400.654C700.988 400.345 702.597 400.503 704.058 401.109C705.52 401.714 706.77 402.74 707.649 404.055C708.528 405.371 708.997 406.918 708.997 408.5C708.994 410.621 708.151 412.654 706.651 414.154C705.151 415.654 703.118 416.498 700.997 416.5V416.5ZM700.997 402.5C699.81 402.5 698.65 402.852 697.664 403.511C696.677 404.17 695.908 405.108 695.454 406.204C695 407.3 694.881 408.507 695.112 409.671C695.344 410.834 695.915 411.904 696.754 412.743C697.593 413.582 698.662 414.153 699.826 414.385C700.99 414.616 702.197 414.497 703.293 414.043C704.389 413.589 705.326 412.82 705.986 411.833C706.645 410.847 706.997 409.687 706.997 408.5C706.995 406.909 706.362 405.384 705.238 404.259C704.113 403.134 702.588 402.502 700.997 402.5V402.5Z" fill="#6C63FF"/>
<path id="Vector_25" d="M685.997 473.5H683.997V487.5H685.997V473.5Z" fill="#6C63FF"/>
<path id="Vector_26" d="M700.997 488.5C699.415 488.5 697.868 488.031 696.552 487.152C695.237 486.273 694.211 485.023 693.606 483.561C693 482.1 692.842 480.491 693.151 478.939C693.459 477.387 694.221 475.962 695.34 474.843C696.459 473.724 697.884 472.962 699.436 472.654C700.988 472.345 702.597 472.503 704.058 473.109C705.52 473.714 706.77 474.74 707.649 476.055C708.528 477.371 708.997 478.918 708.997 480.5C708.994 482.621 708.151 484.654 706.651 486.154C705.151 487.654 703.118 488.498 700.997 488.5V488.5ZM700.997 474.5C699.81 474.5 698.65 474.852 697.664 475.511C696.677 476.17 695.908 477.108 695.454 478.204C695 479.3 694.881 480.507 695.112 481.671C695.344 482.834 695.915 483.904 696.754 484.743C697.593 485.582 698.662 486.153 699.826 486.385C700.99 486.616 702.197 486.497 703.293 486.043C704.389 485.589 705.326 484.82 705.986 483.833C706.645 482.847 706.997 481.687 706.997 480.5C706.995 478.909 706.362 477.384 705.238 476.259C704.113 475.134 702.588 474.502 700.997 474.5Z" fill="#6C63FF"/>
<path id="Vector_27" d="M685.997 545.5H683.997V559.5H685.997V545.5Z" fill="#6C63FF"/>
<path id="Vector_28" d="M700.997 560.5C699.415 560.5 697.868 560.031 696.552 559.152C695.237 558.273 694.211 557.023 693.606 555.561C693 554.1 692.842 552.491 693.151 550.939C693.459 549.387 694.221 547.962 695.34 546.843C696.459 545.724 697.884 544.962 699.436 544.654C700.988 544.345 702.597 544.503 704.058 545.109C705.52 545.714 706.77 546.74 707.649 548.055C708.528 549.371 708.997 550.918 708.997 552.5C708.994 554.621 708.151 556.654 706.651 558.154C705.151 559.654 703.118 560.498 700.997 560.5V560.5ZM700.997 546.5C699.81 546.5 698.65 546.852 697.664 547.511C696.677 548.17 695.908 549.108 695.454 550.204C695 551.3 694.881 552.507 695.112 553.671C695.344 554.834 695.915 555.904 696.754 556.743C697.593 557.582 698.662 558.153 699.826 558.385C700.99 558.616 702.197 558.497 703.293 558.043C704.389 557.589 705.326 556.82 705.986 555.833C706.645 554.847 706.997 553.687 706.997 552.5C706.995 550.909 706.362 549.384 705.238 548.259C704.113 547.134 702.588 546.502 700.997 546.5Z" fill="#6C63FF"/>
<path id="Vector_29" d="M700.997 268.5C703.206 268.5 704.997 266.709 704.997 264.5C704.997 262.291 703.206 260.5 700.997 260.5C698.788 260.5 696.997 262.291 696.997 264.5C696.997 266.709 698.788 268.5 700.997 268.5Z" fill="#6C63FF"/>
<path id="Vector_30" d="M700.997 484.5C703.206 484.5 704.997 482.709 704.997 480.5C704.997 478.291 703.206 476.5 700.997 476.5C698.788 476.5 696.997 478.291 696.997 480.5C696.997 482.709 698.788 484.5 700.997 484.5Z" fill="#6C63FF"/>
<path id="Vector_31" d="M700.997 556.5C703.206 556.5 704.997 554.709 704.997 552.5C704.997 550.291 703.206 548.5 700.997 548.5C698.788 548.5 696.997 550.291 696.997 552.5C696.997 554.709 698.788 556.5 700.997 556.5Z" fill="#6C63FF"/>
</g>
</g>
<g id="String">
<path id="Vector_32" d="M531.497 199C535.363 199 538.497 195.866 538.497 192C538.497 188.134 535.363 185 531.497 185C527.631 185 524.497 188.134 524.497 192C524.497 195.866 527.631 199 531.497 199Z" fill="#3F3D56"/>
<path id="Vector_33" d="M531.497 14C535.363 14 538.497 10.866 538.497 7C538.497 3.13401 535.363 0 531.497 0C527.631 0 524.497 3.13401 524.497 7C524.497 10.866 527.631 14 531.497 14Z" fill="#3F3D56"/>
<g id="String_2">
<path id="Vector_34" d="M532.497 6.99994H530.497V192H532.497V6.99994Z" fill="#3F3D56"/>
</g>
</g>
</g>
<defs>
<clipPath id="clip0">
<rect width="925.497" height="645.184" fill="white"/>
</clipPath>
</defs>
</svg>
